# xmcd CD database file
#
# Track frame offsets:
#	150
#	16285
#	31080
#	48305
#	59137
#	71387
#	89862
#	104235
#	118385
#	133285
#	146195
#	159720
#
# Disc length: 2300 seconds
#
# Revision: 0
# Processed by: cddbd v1.5PL3 Copyright (c) Steve Scherf et al.
# Submitted via: CDex 1.50
#
DISCID=c108fa0c
DTITLE=Peace - Stronger Than You Know
DYEAR=1994
DGENRE=Country
TTITLE0=Stronger Than You Know
TTITLE1=Loser
TTITLE2=Crazy Over You
TTITLE3=Long Way Home
TTITLE4=True Love
TTITLE5=Anymore
TTITLE6=No Peace
TTITLE7=Real Love
TTITLE8=Just Saw The Girl
TTITLE9=Listen Girl
TTITLE10=Where Are You Now?
TTITLE11=Love Me Tonight
EXTD=YEAR: 1994
EXTT0=
EXTT1=
EXTT2=
EXTT3=
EXTT4=
EXTT5=
EXTT6=
EXTT7=
EXTT8=
EXTT9=
EXTT10=
EXTT11=
PLAYORDER=
